<svg width="96" height="96" xmlns="http://www.w3.org/2000/svg" xmlns:xlink="http://www.w3.org/1999/xlink" xml:space="preserve" overflow="hidden"><g transform="translate(-478 -313)"><path d="M548 387 538 387 538 349 548 349 548 387ZM530 385C530 386.1 529.1 387 528 387 526.9 387 526 386.1 526 385L526 351C526 349.9 526.9 349 528 349 529.1 349 530 349.9 530 351L530 385ZM520 385C520 386.1 519.1 387 518 387 516.9 387 516 386.1 516 385L516 351C516 349.9 516.9 349 518 349 519.1 349 520 349.9 520 351L520 385ZM510 385C510 386.1 509.1 387 508 387 506.9 387 506 386.1 506 385L506 351C506 349.9 506.9 349 508 349 509.1 349 510 349.9 510 351L510 385ZM550 343 538 343 538 339 498 339 498 397C498 399.2 499.8 401 502 401L534 401C536.2 401 538 399.2 538 397L538 393 550 393C552.2 393 554 391.2 554 389L554 347C554 344.8 552.2 343 550 343Z" fill="#6497B1"/><path d="M531 328C529.2 328 527.6 328.7 526.4 329.8 524.9 328.7 523 328 521 328 521 328 521 328 520.9 328 520.4 324.1 517 321 513 321 509 321 505.6 324.1 505.1 328 505.1 328 505.1 328 505 328 501.1 328 498 331.1 498 335L538 335C538 331.1 534.9 328 531 328Z" fill="#6497B1"/></g></svg>