<svg width="96" height="96" xmlns="http://www.w3.org/2000/svg" xmlns:xlink="http://www.w3.org/1999/xlink" xml:space="preserve" overflow="hidden"><g transform="translate(-813 -313)"><path d="M833 329 837.436 329C839.909 339.917 846.979 354.6 854.764 361.013 846.977 367.422 840.2 381.834 837.8 393L833 393 833 401 889 401 889 393 884.485 393C882.063 382.135 875 367.476 867.136 361.013 875.007 354.544 882.074 339.872 884.491 329L889 329 889 321 833 321ZM887 399 835 399 835 395 887 395ZM844.467 393C844.608 392.483 844.745 392.013 844.887 391.554 845.683 389.023 847.066 386.716 848.924 384.821L861.005 372.428 873.285 384.863C875.146 386.738 876.541 389.025 877.355 391.538 877.504 392.003 877.646 392.478 877.794 393ZM864.914 360.2C864.466 360.523 864.364 361.148 864.687 361.596 864.75 361.683 864.826 361.76 864.914 361.823 872.7 367.437 879.905 382.064 882.443 393L879.868 393C879.661 392.235 879.468 391.564 879.262 390.93 878.35 388.117 876.791 385.558 874.709 383.458L861 369.572 847.5 383.424C845.422 385.546 843.875 388.129 842.985 390.963 842.785 391.595 842.604 392.245 842.404 393L839.833 393C842.312 381.976 849.359 367.318 856.983 361.825 857.431 361.502 857.533 360.877 857.21 360.429 857.147 360.342 857.07 360.265 856.983 360.202 849.277 354.649 842.069 340 839.479 329L882.45 329C879.917 339.942 872.714 354.582 864.914 360.2ZM835 323 887 323 887 327 835 327Z" fill="#6497B1"/><path d="M850.315 349.535C852.353 353.003 855.009 356.068 858.152 358.579L860 359.911 860 361 862 361 862 359.837 863.745 358.579C866.898 356.068 869.568 353.004 871.624 349.537L872.6 348 849.344 348ZM868.92 350C867.204 352.654 865.06 355.005 862.575 356.957L860.948 358.129 859.322 356.957C856.847 355.005 854.715 352.654 853.014 350Z" fill="#6497B1"/><path d="M860 363 862 363 862 365 860 365Z" fill="#6497B1"/><path d="M860 367 862 367 862 369 860 369Z" fill="#6497B1"/></g></svg>